name N:\Shared_Data\HIL\Data Collection\CoPD-X-MoreData\processed\iteration012\grf0012.mot
datacolumns 19
datarows 39
range 2324.126159 2324.189493
endheader
time	ground_force1_vx	ground_force1_vy	ground_force1_vz	ground_force1_px	ground_force1_py	ground_force1_pz	ground_force2_vx	ground_force2_vy	ground_force2_vz	ground_force2_px	ground_force2_py	ground_force2_pz	ground_torque1_x	ground_torque1_y	ground_torque1_z	ground_torque2_x	ground_torque2_y	ground_torque2_z	
2324.126159	-6.547980712	29.90869283	2.617738982	6.479255384	0	-0.02483362608	-49.60921621	774.4727945	-58.64039199	6.549624008	0	-0.03500053693	0	-0.306330507	0	0	-0.07710720044	0	
2324.127826	-6.96332882	31.59170118	2.258508591	6.4927927	0	-0.01775453108	-49.98813377	774.0896116	-58.95728445	6.550288262	0	-0.03506089368	0	-0.3193774753	0	0	0.02525156594	0	
2324.129507	-7.380262185	33.43434433	1.887529464	6.506436568	0	-0.01059221074	-50.36083581	773.6015779	-59.26111445	6.550955482	0	-0.03511976774	0	-0.3399609144	0	0	0.1248644055	0	
2324.131153	-7.797200019	35.44273231	1.505810951	6.520050743	0	-0.003423346077	-50.72766133	773.0067899	-59.55086618	6.551625033	0	-0.03517709212	0	-0.3693361041	0	0	0.2214496815	0	
2324.132824	-8.212476083	37.62279538	1.114451531	6.533520012	0	0.003685718492	-51.08894504	772.3033714	-59.82551981	6.552296322	0	-0.03523279427	0	-0.4085502347	0	0	0.3147303305	0	
2324.134496	-8.624341634	39.98025996	0.7146376543	6.54675009	0	0.0106792721	-51.44501391	771.4894698	-60.08405362	6.552968804	0	-0.03528679583	0	-0.4584437122	0	0	0.4044347611	0	
2324.136156	-9.030968967	42.520625	0.3076421352	6.559666584	0	0.01751199055	-51.79618361	770.5632517	-60.32544623	6.55364199	0	-0.03533901245	0	-0.5196593845	0	0	0.4902977346	0	
2324.13782	-9.430455541	45.24913868	-0.1051779259	6.572213313	0	0.02414829345	-52.14275519	769.5229002	-60.54867891	6.554315446	0	-0.03538935363	0	-0.5926570929	0	0	0.5720612257	0	
2324.139506	-9.820828707	48.1707758	-0.5223836915	6.584350259	0	0.03056144237	-52.48501171	768.3666107	-60.75273795	6.554988801	0	-0.03543772269	0	-0.6777312688	0	0	0.6494752638	0	
2324.141156	-10.20005105	51.29021565	-0.9424576156	6.596051343	0	0.03673249733	-52.82321501	767.0925875	-60.93661711	6.555661745	0	-0.03548401672	0	-0.7750297273	0	0	0.7222987551	0	
2324.142822	-10.56602632	54.6118208	-1.363806955	6.607302195	0	0.0426492242	-53.15760263	765.6990412	-61.09932011	6.55633404	0	-0.03552812662	0	-0.8845722772	0	0	0.7903002843	0	
2324.144491	-10.91660605	58.1396167	-1.784767763	6.618098038	0	0.04830502128	-53.4883848	764.1841853	-61.23986326	6.557005514	0	-0.03556993727	0	-1.006268197	0	0	0.8532588948	0	
2324.146153	-11.24959662	61.87727222	-2.203609356	6.628441751	0	0.05369791139	-53.81574166	762.5462342	-61.35727807	6.557676067	0	-0.03560932762	0	-1.139932002	0	0	0.9109648478	0	
2324.147818	-11.56276707	65.8280813	-2.618539262	6.638342148	0	0.05882962762	-54.13982059	760.7834005	-61.45061398	6.558345668	0	-0.03564617096	0	-1.28529721	0	0	0.9632203572	0	
2324.149505	-11.85385734	69.99494573	-3.027708622	6.647812496	0	0.06370480665	-54.46073377	758.8938942	-61.51894111	6.559014363	0	-0.0356803352	0	-1.442028056	0	0	1.0098403	0	
2324.15115	-12.1205871	74.38035908	-3.429218051	6.656869264	0	0.06833029312	-54.77855592	756.8759204	-61.5613531	6.559682264	0	-0.03571168319	0	-1.60972921	0	0	1.0506529	0	
2324.15282	-12.36066503	78.98639207	-3.821123921	6.665531084	0	0.07271455191	-55.09332221	754.7276796	-61.57696994	6.560349558	0	-0.03574007311	0	-1.7879537	0	0	1.085500389	0	
2324.154506	-12.57179852	83.81467914	-4.201445069	6.673817913	0	0.07686718019	-55.40502653	752.4473669	-61.5649409	6.561016499	0	-0.03576535892	0	-1.976209248	0	0	1.11423963	0	
2324.156157	-12.7517038	88.86640651	-4.568169891	6.681750358	0	0.08079850935	-55.71361978	750.0331729	-61.52444747	6.56168341	0	-0.03578739081	0	-2.173963281	0	0	1.136742722	0	
2324.157819	-12.89811634	94.14230172	-4.919263799	6.68934916	0	0.08451928536	-56.01900859	747.4832845	-61.4547063	6.562350678	0	-0.03580601575	0	-2.380646855	0	0	1.152897568	0	
2324.159492	-13.0088015	99.64262456	-5.252677017	6.696634789	0	0.08804041659	-56.32105413	744.7958865	-61.35497217	6.563018754	0	-0.035821078	0	-2.595657722	0	0	1.162608417	0	
2324.161152	-13.08156537	105.3671597	-5.566352675	6.703627151	0	0.09137277845	-56.61957127	741.9691643	-61.22454098	6.563688146	0	-0.03583241973	0	-2.818362776	0	0	1.165796371	0	
2324.162817	-13.11426576	111.3152107	-5.858235164	6.710345371	0	0.09452706514	-56.91432786	739.0013067	-61.06275272	6.564359418	0	-0.03583988162	0	-3.048100028	0	0	1.162399869	0	
2324.164505	-13.10482313	117.4855956	-6.126278725	6.716807651	0	0.09751368014	-57.20504435	735.8905094	-60.86899439	6.565033185	0	-0.03584330351	0	-3.284180312	0	0	1.152375135	0	
2324.166156	-13.05123152	123.8766445	-6.368456209	6.723031172	0	0.100342658	-57.49139361	732.6349798	-60.64270301	6.565710109	0	-0.035842525	0	-3.525888826	0	0	1.135696598	0	
2324.16782	-12.95156933	130.486198	-6.58276798	6.729032046	0	0.1030236111	-57.7730009	729.2329416	-60.38336839	6.566390892	0	-0.0358373862	0	-3.772486633	0	0	1.112357282	0	
2324.16949	-12.80400994	137.311608	-6.767250909	6.734825292	0	0.1055656965	-58.04944418	725.6826409	-60.09053606	6.567076274	0	-0.03582772832	0	-4.02321222	0	0	1.082369165	0	
2324.171156	-12.60683195	144.3497396	-6.919987401	6.740424843	0	0.1079775974	-58.32025457	721.9823523	-59.76380999	6.567767024	0	-0.03581339441	0	-4.277283163	0	0	1.045763501	0	
2324.172818	-12.35842917	151.5969749	-7.039114418	6.745843568	0	0.1102675179	-58.584917	718.1303856	-59.40285527	6.568463938	0	-0.03579422999	0	-4.533897972	0	0	1.002591117	0	
2324.174503	-12.05732008	159.049218	-7.122832432	6.751093304	0	0.1124431849	-58.84287119	714.125094	-59.00740074	6.56916783	0	-0.03577008376	0	-4.79223814	0	0	0.9529226597	0	
2324.176154	-11.70215688	166.7019023	-7.169414269	6.756184901	0	0.1145118583	-59.09351269	709.964882	-58.57724139	6.569879528	0	-0.03574080824	0	-5.051470428	0	0	0.8968488119	0	
2324.177817	-11.29173394	174.5499988	-7.177213776	6.761128271	0	0.116480345	-59.33619423	705.6482137	-58.1122408	6.570599868	0	-0.03570626041	0	-5.310749393	0	0	0.8344804518	0	
2324.179502	-10.82499566	182.5880258	-7.14467427	6.76593244	0	0.1183550163	-59.57022722	701.1736228	-57.61233329	6.571329685	0	-0.03566630236	0	-5.56922016	0	0	0.7659487642	0	
2324.181153	-10.30104366	190.8100608	-7.070336709	6.770605605	0	0.1201418283	-59.79488351	696.5397219	-57.07752599	6.572069812	0	-0.03562080188	0	-5.826021436	0	0	0.6914052891	0	
2324.182824	-9.719143292	199.2097537	-6.952847538	6.775155185	0	0.1218463419	-60.0093973	691.7452126	-56.50790066	6.57282107	0	-0.03556963304	0	-6.080288758	0	0	0.6110219007	0	
2324.184491	-9.078729391	207.7803409	-6.79096616	6.779587876	0	0.1234737455	-60.21296723	686.7888964	-55.90361542	6.573584262	0	-0.03551267675	0	-6.331157935	0	0	0.5249907087	0	
2324.186154	-8.379411267	216.5146618	-6.583571971	6.783909704	0	0.1250288761	-60.40475878	681.6696858	-55.26490613	6.57436017	0	-0.03544982127	0	-6.577768689	0	0	0.4335238727	0	
2324.187818	-7.620976886	225.4051763	-6.329670941	6.788126073	0	0.1265162409	-60.58390667	676.3866152	-54.59208761	6.575149547	0	-0.03538096269	0	-6.819268439	0	0	0.3368533194	0	
2324.189493	-6.803396246	234.4439834	-6.028401664	6.792241819	0	0.1279400381	-60.74951761	670.9388532	-53.88555459	6.57595311	0	-0.03530600537	0	-7.054816221	0	0	0.2352303565	0	
